<?xml version="1.0" encoding="UTF-8" standalone="no"?>
<svg
   xmlns:dc="http://purl.org/dc/elements/1.1/"
   xmlns:cc="http://creativecommons.org/ns#"
   xmlns:rdf="http://www.w3.org/1999/02/22-rdf-syntax-ns#"
   xmlns:svg="http://www.w3.org/2000/svg"
   xmlns="http://www.w3.org/2000/svg"
   xmlns:sodipodi="http://sodipodi.sourceforge.net/DTD/sodipodi-0.dtd"
   xmlns:inkscape="http://www.inkscape.org/namespaces/inkscape"
   id="svg2"
   xml:space="preserve"
   enable-background="new 0 0 3064.5 1667.463"
   viewBox="0 0 1100 300"
   height="300"
   width="1100"
   y="0px"
   x="0px"
   version="1.1"
   inkscape:version="0.91 r13725"
   sodipodi:docname="blueprint5.svg"><sodipodi:namedview
     pagecolor="#ffffff"
     bordercolor="#666666"
     borderopacity="0.5372549"
     objecttolerance="10"
     gridtolerance="10"
     guidetolerance="10"
     inkscape:pageopacity="0"
     inkscape:pageshadow="2"
     inkscape:window-width="1676"
     inkscape:window-height="1011"
     id="namedview566"
     showgrid="false"
     inkscape:zoom="3.9471366"
     inkscape:cx="155.81295"
     inkscape:cy="236.51167"
     inkscape:window-x="0"
     inkscape:window-y="18"
     inkscape:window-maximized="0"
     inkscape:current-layer="svg2" /><metadata
     id="metadata1193"><rdf:RDF><cc:Work
         rdf:about=""><dc:format>image/svg+xml</dc:format><dc:type
           rdf:resource="http://purl.org/dc/dcmitype/StillImage" /><dc:title></dc:title></cc:Work></rdf:RDF></metadata><defs
     id="defs1191" /><pattern
     overflow="visible"
     viewBox="0 -100.125 100.125 100.125"
     id="New_Pattern_Swatch_1"
     patternUnits="userSpaceOnUse"
     height="100.125"
     width="100.125"
     y="1848.963"><g
       id="g5"><polygon
         id="polygon7"
         points="0,0 100.125,0 100.125,-100.125 0,-100.125   "
         fill="none" /><polyline
         id="polyline9"
         points="0,-100 100,-100 100,0   "
         stroke-width="0.25"
         stroke="#FFFFFF"
         fill="none" /><line
         id="line11"
         y2="-50"
         x2="100"
         y1="-50"
         x1="0"
         stroke-width="0.25"
         stroke="#FFFFFF"
         fill="none" /><line
         id="line13"
         y2="0"
         x2="50"
         y1="-100"
         x1="50"
         stroke-width="0.25"
         stroke="#FFFFFF"
         fill="none" /></g></pattern><g
     id="Blue_Print"
     transform="matrix(0.35947768,0,0,0.35887066,0.20133183,0.00807135)"><rect
       id="rect16"
       height="1669.463"
       width="3065"
       x="-0.5"
       y="0"
       style="fill:#005d96" /><rect
       id="rect18"
       height="1669.463"
       width="3065"
       x="-0.5"
       y="0"
       style="opacity:0.3;fill:url(#New_Pattern_Swatch_1)" /></g><path
     inkscape:connector-curvature="0"
     style="color:#000000;display:inline;overflow:visible;visibility:visible;fill:none;stroke:#ffffff;stroke-width:0.63030273;stroke-opacity:1;marker:none;enable-background:accumulate"
     d="m -0.3977941,118.45103 6.2751668,0 0,-10.70141 4.5495153,0 0,-13.04233 3.451339,0 0,-19.229089 2.823829,0 0,-7.35722 2.196319,0 0,-6.52117 2.353196,0 0,-4.84908 2.980705,0 0,-3.00977 5.804535,0 0,3.00977 2.980706,0 0,4.84908 2.353196,0 0,6.52117 2.19632,0 0,7.35722 2.823829,0 0,19.229089 3.451337,0 0,13.04233 4.549517,0 0,10.70141 8.314608,0 0,5.76873 3.922007,0 0,-8.10966 5.804534,0 0,-27.338749 0.717492,0.20491 0,-10.82271 2.700399,-2.87821 0,-11.75262 13.371038,-10.23282 0,-4.96587 1.774914,-1.89176 1.912197,2.03811 0,4.89436 13.606055,10.40879 0,11.68542 3.13976,3.34656 0,9.88225 0.60566,0.17295 0,27.332989 5.47122,0 0,8.02606 15.14465,0 0,-33.922319 5.49107,-5.85263"
     id="path4193" /><path
     inkscape:connector-curvature="0"
     id="path4195"
     d="m 70.825468,78.989601 14.315246,-15.25787 14.982036,15.96851"
     style="color:#000000;display:inline;overflow:visible;visibility:visible;fill:none;stroke:#ffffff;stroke-width:2.52121091;stroke-linecap:round;stroke-linejoin:round;stroke-miterlimit:4;stroke-dasharray:none;stroke-dashoffset:0;stroke-opacity:1;marker:none;enable-background:accumulate" /><path
     inkscape:connector-curvature="0"
     id="path4197"
     d="m 75.90444,85.259951 9.452015,-10.07437 9.687314,10.32519"
     style="color:#000000;display:inline;overflow:visible;visibility:visible;fill:none;stroke:#ffffff;stroke-width:2.52121091;stroke-linecap:round;stroke-linejoin:round;stroke-miterlimit:4;stroke-dasharray:none;stroke-dashoffset:0;stroke-opacity:1;marker:none;enable-background:accumulate" /><path
     inkscape:connector-curvature="0"
     id="path4199"
     d="m 130.4397,77.233901 3.9612,-4.22204"
     style="color:#000000;display:inline;overflow:visible;visibility:visible;fill:none;stroke:#ffffff;stroke-width:0.63030273;stroke-linecap:round;stroke-linejoin:round;stroke-miterlimit:4;stroke-dasharray:none;stroke-dashoffset:0;stroke-opacity:1;marker:none;enable-background:accumulate" /><path
     inkscape:connector-curvature="0"
     id="path4201"
     d="m 134.59701,64.776801 4.00043,-4.26385"
     style="color:#000000;display:inline;overflow:visible;visibility:visible;fill:none;stroke:#ffffff;stroke-width:0.63030273;stroke-linecap:round;stroke-linejoin:round;stroke-miterlimit:4;stroke-dasharray:none;stroke-dashoffset:0;stroke-opacity:1;marker:none;enable-background:accumulate" /><path
     inkscape:connector-curvature="0"
     id="path4203"
     d="m 139.06807,52.904921 4.54952,-4.84907 c 0.32291,-2.02422 0.47706,-4.03044 2.82382,-6.27036 l 1.1766,-35.86642 1.64723,35.86642 c 1.78081,1.84285 1.85995,4.21951 2.27475,6.27036 l 4.78481,5.5179"
     style="color:#000000;display:inline;overflow:visible;visibility:visible;fill:none;stroke:#ffffff;stroke-width:0.63030273;stroke-linecap:round;stroke-linejoin:round;stroke-miterlimit:4;stroke-dasharray:none;stroke-dashoffset:0;stroke-opacity:1;marker:none;enable-background:accumulate" /><path
     inkscape:connector-curvature="0"
     style="color:#000000;display:inline;overflow:visible;visibility:visible;fill:none;stroke:#ffffff;stroke-width:0.63030273;stroke-linecap:round;stroke-linejoin:round;stroke-miterlimit:4;stroke-dasharray:none;stroke-dashoffset:0;stroke-opacity:1;marker:none;enable-background:accumulate"
     d="m 164.79632,77.233901 -3.9612,-4.22204"
     id="path4205" /><path
     inkscape:connector-curvature="0"
     style="color:#000000;display:inline;overflow:visible;visibility:visible;fill:none;stroke:#ffffff;stroke-width:0.63030273;stroke-linecap:round;stroke-linejoin:round;stroke-miterlimit:4;stroke-dasharray:none;stroke-dashoffset:0;stroke-opacity:1;marker:none;enable-background:accumulate"
     d="m 160.63901,64.776801 -4.00042,-4.26385"
     id="path4207" /><path
     inkscape:connector-curvature="0"
     id="path4209"
     d="m 147.94631,87.324601 -0.85856,0.93541 -8.37561,8.927119 -0.85855,0.91507 3.18688,-0.029 6.90584,-7.067929 c 2.7261,2.930459 3.98635,4.006499 6.69392,6.956479 l 3.24614,-0.0425 -0.85855,-0.91508 -8.22296,-8.744099 z"
     style="color:#000000;font-style:normal;font-variant:normal;font-weight:normal;font-stretch:normal;font-size:medium;line-height:normal;font-family:Sans;-inkscape-font-specification:Sans;text-indent:0;text-align:start;text-decoration:none;text-decoration-line:none;letter-spacing:normal;word-spacing:normal;text-transform:none;direction:ltr;block-progression:tb;writing-mode:lr-tb;baseline-shift:baseline;text-anchor:start;display:inline;overflow:visible;visibility:visible;fill:#ffffff;fill-opacity:1;stroke:#ffffff;stroke-width:0.98001713;stroke-opacity:1;marker:none;enable-background:accumulate" /><path
     inkscape:connector-curvature="0"
     id="path4215"
     d="m 130.59658,77.401111 0,19.647109 17.21754,-18.351239 17.2175,18.351239 0,-19.647109"
     style="color:#000000;display:inline;overflow:visible;visibility:visible;fill:none;stroke:#ffffff;stroke-width:2.52121091;stroke-linecap:square;stroke-linejoin:miter;stroke-miterlimit:4;stroke-dasharray:none;stroke-dashoffset:0;stroke-opacity:1;marker:none;enable-background:accumulate" /><path
     inkscape:connector-curvature="0"
     style="color:#000000;display:inline;overflow:visible;visibility:visible;fill:none;stroke:#ffffff;stroke-width:2.52121091;stroke-linecap:square;stroke-linejoin:miter;stroke-miterlimit:4;stroke-dasharray:none;stroke-dashoffset:0;stroke-opacity:1;marker:none;enable-background:accumulate"
     d="m 134.98922,65.443731 0,14.63464 12.8249,-13.66938 12.82489,13.66938 0,-14.63464"
     id="path4217" /><path
     inkscape:connector-curvature="0"
     id="path4219"
     d="m 139.0861,53.989881 0,9.65087 8.5711,-9.01432 8.57114,9.01432 0,-9.65087"
     style="color:#000000;display:inline;overflow:visible;visibility:visible;fill:none;stroke:#ffffff;stroke-width:2.52121091;stroke-linecap:square;stroke-linejoin:miter;stroke-miterlimit:4;stroke-dasharray:none;stroke-dashoffset:0;stroke-opacity:1;marker:none;enable-background:accumulate" /><path
     inkscape:connector-curvature="0"
     id="path4221"
     d="m 145.02948,6.378901 2.62776,-0.91966 1.45113,-2.21556"
     style="color:#000000;display:inline;overflow:visible;visibility:visible;fill:none;stroke:#ffffff;stroke-width:0.63030273;stroke-linecap:square;stroke-linejoin:miter;stroke-miterlimit:4;stroke-dasharray:none;stroke-dashoffset:0;stroke-opacity:1;marker:none;enable-background:accumulate" /><path
     inkscape:connector-curvature="0"
     id="path4223"
     d="m 147.53956,5.626401 0,-3.7203398"
     style="color:#000000;display:inline;overflow:visible;visibility:visible;fill:none;stroke:#ffffff;stroke-width:0.63030273;stroke-linecap:square;stroke-linejoin:miter;stroke-miterlimit:4;stroke-dasharray:none;stroke-dashoffset:0;stroke-opacity:1;marker:none;enable-background:accumulate" /><path
     inkscape:connector-curvature="0"
     style="color:#000000;display:inline;overflow:visible;visibility:visible;fill:none;stroke:#ffffff;stroke-width:0.63030273;stroke-linecap:square;stroke-linejoin:miter;stroke-miterlimit:4;stroke-dasharray:none;stroke-dashoffset:0;stroke-opacity:1;marker:none;enable-background:accumulate"
     d="m 150.16731,6.378901 -2.62775,-0.91966 -1.45113,-2.21556"
     id="path4225" /><path
     inkscape:connector-curvature="0"
     id="path4227"
     d="m 165.65916,85.259951 5.05934,5.3925 0,21.946249 45.3774,0 0,-21.235599 5.17703,0 0,-10.70141 3.92197,0 10.90314,-17.22258 1.64723,0 10.90314,17.72421 3.84355,0 0,10.450594 5.49074,0 0,45.230155 5.02019,0 0,6.35396 2.82382,0 c 0.48442,-3.09317 0.91568,-6.20251 2.82383,-8.8621 l -0.53083,-2.11172 c 0.13062,-3.46833 1.08003,-6.09673 2.88403,-7.33562 l 0,-5.53256 4.19424,-7.76703 2.65674,0 4.22027,7.76703 0,5.53256 c 2.44216,1.99228 2.62928,5.17399 2.73414,7.60804 l -0.62751,2.34093 c 1.51322,3.12124 2.19021,6.24249 2.66695,9.36373 l 0,5.68512"
     style="color:#000000;display:inline;overflow:visible;visibility:visible;fill:none;stroke:#ffffff;stroke-width:0.63030273;stroke-linecap:square;stroke-linejoin:miter;stroke-miterlimit:4;stroke-dasharray:none;stroke-dashoffset:0;stroke-opacity:1;marker:none;enable-background:accumulate" /><path
     inkscape:connector-curvature="0"
     id="path4229"
     d="m 216.22755,112.58473 20.85494,0"
     style="color:#000000;display:inline;overflow:visible;visibility:visible;fill:none;stroke:#ffffff;stroke-width:0.63030273;stroke-linecap:square;stroke-linejoin:miter;stroke-miterlimit:4;stroke-dasharray:none;stroke-dashoffset:0;stroke-opacity:1;marker:none;enable-background:accumulate" /><path
     inkscape:connector-curvature="0"
     id="path4231"
     d="m 276.03327,111.63936 c -1.87133,-1.68105 -0.22665,-4.02773 -0.67103,-5.60667 -0.16069,-0.57095 -1.11381,-0.82199 -0.80635,-1.69585 0.20793,-0.59096 1.58972,-1.34095 1.39082,-1.76506 -0.0543,-0.11568 -0.31947,-0.0751 -0.41672,-0.1269 -0.40385,-0.21523 -0.25042,-0.73992 -0.48707,-0.99213 -0.13557,-0.14455 -0.50342,-0.16167 -0.65478,-0.32302 -0.0438,-0.0466 0.95207,-0.49308 0.99573,-0.6172 0.13721,-0.38997 1.29436,-0.59307 1.66138,-0.20188 0.0856,0.0912 0.041,0.38125 0.17858,0.44415 0.25463,0.11632 0.62769,-0.13273 0.83881,0.0923 0.13274,0.14149 -0.49215,0.37396 -0.49786,0.39223 -0.0582,0.18607 0.12197,0.36869 0.0433,0.53645 -0.2125,0.45302 -1.22059,1.78864 -0.49245,2.37072 0.22432,0.17931 1.64916,-2.2699 2.09969,-1.30937 0.0672,0.14314 -1.67758,1.80503 -1.67758,2.58991 0,1.31192 -0.30412,2.35152 -0.61152,3.4436 -0.3359,1.19349 1.086,1.50252 0.39509,2.60722 -0.27013,0.43189 -0.90077,0.0559 -1.288,0.16151 z"
     style="color:#000000;display:inline;overflow:visible;visibility:visible;fill:#ffffff;fill-opacity:1;stroke:#ffffff;stroke-width:0.24500428;stroke-opacity:1;marker:none;enable-background:accumulate" /><text
     transform="scale(0.90182571,1.1088617)"
     id="text4233"
     y="100.7321"
     x="214.41306"
     style="color:#000000;font-style:normal;font-variant:normal;font-weight:normal;font-stretch:normal;font-size:11.73678493px;font-family:Arial;-inkscape-font-specification:Arial;text-align:start;text-anchor:start;display:inline;overflow:visible;visibility:visible;fill:#ffffff;fill-opacity:1;fill-rule:nonzero;stroke:#ffffff;stroke-width:0.24500428;stroke-opacity:1;marker:none;enable-background:accumulate"
     xml:space="preserve"><tspan
       y="100.7321"
       x="214.41306"
       id="tspan4235"
       style="stroke-width:0.24500428">P  S  F  S</tspan></text>
</svg>