<svg xmlns="http://www.w3.org/2000/svg" xmlns:xlink="http://www.w3.org/1999/xlink" version="1.1" x="0px" y="0px" viewBox="0 0 100 125" enable-background="new 0 0 100 100" xml:space="preserve"><g><path d="M99.84,42.718C99.84,35.983,87.73,29,50.98,29l-0.17,0.678h-1.62L49.021,29C12.27,29,0.161,35.983,0.161,42.718   c0,0-0.296,7.579-0.085,7.367c0.1,0,0.929,0.816,1.598,1.492c0.058,1.069,0.123,2.269,0.196,3.594   c0.271,4.89,0.577,10.432,0.577,12.358c0,4.133,3.324,5.673,5.42,5.673h17.697c7.436,0,12.389-2.533,14.321-7.326   c5.375-13.319,8.223-14.859,9.897-14.859h0.421c1.676,0,4.523,1.54,9.897,14.859c1.934,4.793,6.885,7.326,14.321,7.326H92.12   c2.097,0,5.421-1.54,5.421-5.673c0-1.927,0.306-7.469,0.577-12.358c0.072-1.319,0.139-2.514,0.195-3.579   c0.671-0.678,1.511-1.507,1.61-1.507C100.136,50.297,99.84,42.718,99.84,42.718z M96.088,55.059   c-0.285,5.155-0.579,10.487-0.579,12.471c0,3.6-3.354,3.641-3.389,3.641H74.423c-6.632,0-10.816-2.037-12.438-6.054   c-5.72-14.178-9.042-16.132-11.781-16.132h-0.421c-2.738,0-6.062,1.954-11.781,16.132c-1.621,4.017-5.806,6.054-12.438,6.054H7.867   c-0.033,0-3.388-0.041-3.388-3.641c0-1.983-0.296-7.315-0.58-12.471c-0.233-4.212-0.475-8.567-0.438-9.235   c0.005-0.084,0.005-0.196,0.004-0.336c-0.01-0.861-0.032-2.878,2.229-5.164c3.886-3.93,14.499-8.613,42.988-8.613h2.623   c28.488,0,39.103,4.684,42.988,8.613c2.261,2.286,2.238,4.303,2.229,5.164c-0.002,0.14-0.002,0.252,0.003,0.336   C96.562,46.491,96.322,50.847,96.088,55.059z"/></g><text x="0" y="115" fill="#000000" font-size="5px" font-weight="bold" font-family="'Helvetica Neue', Helvetica, Arial-Unicode, Arial, Sans-serif">Created by Nicolas Molès</text><text x="0" y="120" fill="#000000" font-size="5px" font-weight="bold" font-family="'Helvetica Neue', Helvetica, Arial-Unicode, Arial, Sans-serif">from the Noun Project</text></svg>