<svg xmlns="http://www.w3.org/2000/svg" xmlns:xlink="http://www.w3.org/1999/xlink" version="1.1" x="0px" y="0px" viewBox="0 0 100 125" enable-background="new 0 0 100 100" xml:space="preserve"><g><path fill-rule="evenodd" clip-rule="evenodd" d="M18.504,32.66c-0.392,0.004-0.082,0.639-0.181,0.9   c-2.121,0.336-3.053,1.912-3.961,3.42c-0.427,0.713,1.106,1.049,1.082,1.26c5.71,4.441,54.087,15.049,66.802,10.984   c0.519-0.037,0.916,0.047,1.082,0.361c0.466-0.193,7.982-8.521,7.923-8.645c-0.055-0.111-6.692,6.316-7.015,6.326   c-0.625,0.02,1.069-2.914,1.221-3.93c0.154-1.016,7.836-7.557,8.674-5.277c1.104,2.994,1.082,4.684,0.362,5.703   c-0.607,0.857-7.744,11.223-7.744,11.223s-1.875,1.127-2.879,1.623c-0.184,9.779-5.217,14.711-10.984,18.906   c-1.007-0.436-0.853-0.111-1.622,0.359c-4.77,0.209-11.244,0.98-16.746,0.359c-2.984-0.334-6.318-0.596-8.461-1.619   c-1.952-0.932-4.368-5.152-4.862-5.943c-0.454-0.721-0.955-1.477-1.441-2.34c-0.987-1.746-1.669-3.918-2.521-5.043   c-0.511-0.674-1.893-1.625-3.063-1.441c-1.733,0.275-1.831,2.689-2.52,4.324c-0.851,2.021-1.727,3.826-3.365,4.484   c-3.367,1.357-7.341-1.371-10.499-3.406c-2.84-1.828-5.199-3.564-7.385-5.762c-0.727-0.73-1.461-3.801-1.801-5.4   c-0.657-3.1-1.057-6.799-1.079-10.086C6.483,43.721,5,42.562,5,42.562l0.36-4.322l5.762-6.48l5.762-3.422   c0,0,4.941-2.684,7.382-3.963c0.657-0.115,0.96,0.123,1.26,0.361c4.249-2.303,9.746-0.924,12.065,0.9   c1.756,1.383,7.908,8.439,9.361,9.545c0.424,0.32,1.379,0.396,1.263,1.619c-0.119,1.229-1.679,2.611-3.783,2.16   c-0.568-0.121-1.679-1.119-1.979-1.439c-2.82-3.014-4.782-11.287-11.524-10.984c-1.947,0.088-2.6,0.629-4.502,1.26   c-0.293,0.367-0.377,0.943-0.72,1.262C22.798,30.117,20.853,32.637,18.504,32.66z M72.503,73.703l-1.255,0.146   C71.781,56.604,73.047,53.436,72.503,73.703z"/></g><text x="0" y="115" fill="#000000" font-size="5px" font-weight="bold" font-family="'Helvetica Neue', Helvetica, Arial-Unicode, Arial, Sans-serif">Created by André Renault</text><text x="0" y="120" fill="#000000" font-size="5px" font-weight="bold" font-family="'Helvetica Neue', Helvetica, Arial-Unicode, Arial, Sans-serif">from the Noun Project</text></svg>