<?xml version="1.0" encoding="UTF-8" standalone="no"?>
<!-- Generator: Adobe Illustrator 16.0.0, SVG Export Plug-In . SVG Version: 6.00 Build 0)  -->

<svg
   xmlns:dc="http://purl.org/dc/elements/1.1/"
   xmlns:cc="http://creativecommons.org/ns#"
   xmlns:rdf="http://www.w3.org/1999/02/22-rdf-syntax-ns#"
   xmlns:svg="http://www.w3.org/2000/svg"
   xmlns="http://www.w3.org/2000/svg"
   xmlns:sodipodi="http://sodipodi.sourceforge.net/DTD/sodipodi-0.dtd"
   xmlns:inkscape="http://www.inkscape.org/namespaces/inkscape"
   version="1.1"
   id="Layer_1"
   x="0px"
   y="0px"
   width="864px"
   height="864px"
   viewBox="0 0 864 864"
   enable-background="new 0 0 864 864"
   xml:space="preserve"
   inkscape:version="0.91 r13725"
   sodipodi:docname="awardglasses.svg"><metadata
     id="metadata4196"><rdf:RDF><cc:Work
         rdf:about=""><dc:format>image/svg+xml</dc:format><dc:type
           rdf:resource="http://purl.org/dc/dcmitype/StillImage" /><dc:title /></cc:Work></rdf:RDF></metadata><defs
     id="defs4194" /><sodipodi:namedview
     pagecolor="#ffffff"
     bordercolor="#666666"
     borderopacity="1"
     objecttolerance="10"
     gridtolerance="10"
     guidetolerance="10"
     inkscape:pageopacity="0"
     inkscape:pageshadow="2"
     inkscape:window-width="1676"
     inkscape:window-height="1011"
     id="namedview4192"
     showgrid="false"
     inkscape:zoom="0.27314815"
     inkscape:cx="432"
     inkscape:cy="432"
     inkscape:window-x="0"
     inkscape:window-y="18"
     inkscape:window-maximized="0"
     inkscape:current-layer="Layer_1" /><g
     transform="matrix(7.2549199,0,0,7.2549199,74.473689,59.743566)"
     id="g4435"><path
       inkscape:connector-curvature="0"
       d="M 99.84,42.718 C 99.84,35.983 87.73,29 50.98,29 l -0.17,0.678 -1.62,0 L 49.021,29 c -36.751,0 -48.86,6.983 -48.86,13.718 0,0 -0.296,7.579 -0.085,7.367 0.1,0 0.929,0.816 1.598,1.492 0.058,1.069 0.123,2.269 0.196,3.594 0.271,4.89 0.577,10.432 0.577,12.358 0,4.133 3.324,5.673 5.42,5.673 l 17.697,0 c 7.436,0 12.389,-2.533 14.321,-7.326 5.375,-13.319 8.223,-14.859 9.897,-14.859 l 0.421,0 c 1.676,0 4.523,1.54 9.897,14.859 1.934,4.793 6.885,7.326 14.321,7.326 l 17.699,0 c 2.097,0 5.421,-1.54 5.421,-5.673 0,-1.927 0.306,-7.469 0.577,-12.358 0.072,-1.319 0.139,-2.514 0.195,-3.579 0.671,-0.678 1.511,-1.507 1.61,-1.507 0.213,0.212 -0.083,-7.367 -0.083,-7.367 z m -3.752,12.341 c -0.285,5.155 -0.579,10.487 -0.579,12.471 0,3.6 -3.354,3.641 -3.389,3.641 l -17.697,0 c -6.632,0 -10.816,-2.037 -12.438,-6.054 C 56.265,50.939 52.943,48.985 50.204,48.985 l -0.421,0 c -2.738,0 -6.062,1.954 -11.781,16.132 -1.621,4.017 -5.806,6.054 -12.438,6.054 l -17.697,0 C 7.834,71.171 4.479,71.13 4.479,67.53 4.479,65.547 4.183,60.215 3.899,55.059 3.666,50.847 3.424,46.492 3.461,45.824 3.466,45.74 3.466,45.628 3.465,45.488 3.455,44.627 3.433,42.61 5.694,40.324 9.58,36.394 20.193,31.711 48.682,31.711 l 2.623,0 c 28.488,0 39.103,4.684 42.988,8.613 2.261,2.286 2.238,4.303 2.229,5.164 -0.002,0.14 -0.002,0.252 0.003,0.336 0.037,0.667 -0.203,5.023 -0.437,9.235 z"
       id="path4437" /></g><text
     style="font-weight:bold;font-size:46.55265045px;font-family:'Helvetica Neue', Helvetica, Arial-Unicode, Arial, Sans-serif;fill:#000000"
     x="164.22299"
     y="956.54004"
     font-size="5px"
     font-weight="bold"
     id="text4439">Created by Nicolas Molès</text>
<text
     style="font-weight:bold;font-size:46.55265045px;font-family:'Helvetica Neue', Helvetica, Arial-Unicode, Arial, Sans-serif;fill:#000000"
     x="164.22299"
     y="1003.0928"
     font-size="5px"
     font-weight="bold"
     id="text4441">from the Noun Project</text>
</svg>