<?xml version="1.0" encoding="UTF-8" standalone="no"?>
<!-- Generator: Adobe Illustrator 16.0.0, SVG Export Plug-In . SVG Version: 6.00 Build 0)  -->

<svg
   xmlns:dc="http://purl.org/dc/elements/1.1/"
   xmlns:cc="http://creativecommons.org/ns#"
   xmlns:rdf="http://www.w3.org/1999/02/22-rdf-syntax-ns#"
   xmlns:svg="http://www.w3.org/2000/svg"
   xmlns="http://www.w3.org/2000/svg"
   xmlns:sodipodi="http://sodipodi.sourceforge.net/DTD/sodipodi-0.dtd"
   xmlns:inkscape="http://www.inkscape.org/namespaces/inkscape"
   version="1.1"
   id="Layer_1"
   x="0px"
   y="0px"
   width="864px"
   height="864px"
   viewBox="0 0 864 864"
   enable-background="new 0 0 864 864"
   xml:space="preserve"
   inkscape:version="0.91 r13725"
   sodipodi:docname="awardhardhat.svg"><metadata
     id="metadata4638"><rdf:RDF><cc:Work
         rdf:about=""><dc:format>image/svg+xml</dc:format><dc:type
           rdf:resource="http://purl.org/dc/dcmitype/StillImage" /></cc:Work></rdf:RDF></metadata><defs
     id="defs4636" /><sodipodi:namedview
     pagecolor="#ffffff"
     bordercolor="#666666"
     borderopacity="1"
     objecttolerance="10"
     gridtolerance="10"
     guidetolerance="10"
     inkscape:pageopacity="0"
     inkscape:pageshadow="2"
     inkscape:window-width="1676"
     inkscape:window-height="1011"
     id="namedview4634"
     showgrid="false"
     inkscape:zoom="0.27314815"
     inkscape:cx="432"
     inkscape:cy="432"
     inkscape:window-x="0"
     inkscape:window-y="18"
     inkscape:window-maximized="0"
     inkscape:current-layer="Layer_1" /><g
     id="g4620"
     transform="translate(0,86)"><path
       d="m 281.107,483.035 c 0,-22.775 -1.366,-41.999 0.228,-60.975 8.34,-99.29 33.419,-193.334 91.344,-276.172 25.511,-36.483 57.316,-66.017 101.3,-78.907 46.201,-13.541 88.193,-0.552 129.616,20.317 94.338,47.527 136.9,130.379 156.857,228.223 5.802,28.448 5.723,58.067 8.888,87.09 1.893,17.36 -5.751,29.183 -19.348,38.59 -26.374,18.246 -56.368,27.55 -87.038,34.614 -88.778,20.448 -178.831,24.948 -269.429,18.752 -38.21,-2.614 -76.247,-7.748 -112.418,-11.532 z"
       id="path4622"
       inkscape:connector-curvature="0"
       style="clip-rule:evenodd;fill-rule:evenodd" /><path
       d="m 143.325,478.311 c 5.071,-35.122 7.555,-68.217 14.88,-100.203 26.436,-115.458 83.66,-211.787 181.316,-281.632 24.085,-17.226 55.481,-31.293 75.461,-34.748 -11.599,8.203 -22.5,15.012 -32.392,23.059 -49.114,39.954 -80.179,92.689 -103.979,150.105 -31.205,75.276 -48.149,153.693 -50.328,235.336 -0.288,10.806 -5.386,21.482 -8.672,33.776 -27.363,-9.217 -52.77,-17.774 -76.286,-25.693 z"
       id="path4624"
       inkscape:connector-curvature="0"
       style="clip-rule:evenodd;fill-rule:evenodd" /><path
       d="m 533.276,560.912 c -37.441,15.178 -75.183,29.658 -112.244,45.714 -44.158,19.131 -89.282,15.993 -133.677,4.866 -62.103,-15.563 -123.529,-33.928 -184.9,-52.249 -13.938,-4.161 -27.06,-12.12 -39.468,-20.038 -12.869,-8.213 -12.87,-13.369 -1.649,-23.233 17.371,-15.272 35.234,-29.983 53.292,-45.274 27.229,40.712 70.561,51.691 113.085,62.445 89.601,22.658 181.073,27.383 273.101,24.764 10.446,-0.297 20.908,-0.04 31.363,-0.04 0.366,1.015 0.731,2.029 1.097,3.045 z"
       id="path4626"
       inkscape:connector-curvature="0"
       style="clip-rule:evenodd;fill-rule:evenodd" /><path
       d="m 163.195,496.657 c 16.348,5.469 32.839,10.556 48.983,16.572 7.806,2.911 14.354,3.056 20.348,-3.049 22.342,-22.75 47.824,-23.783 78.427,-18.159 76.3,14.021 153.654,14.205 230.979,8.324 53.189,-4.045 105.801,-11.409 156.757,-27.749 26.288,-8.431 51.625,-19.003 70.538,-40.06 8.636,9.037 16.702,17.999 25.348,26.362 6.896,6.673 3.242,13.046 -1.599,16.837 -12.573,9.842 -25.227,20.455 -39.564,27.011 -45.234,20.681 -93.837,29.312 -142.794,35.717 -83.002,10.861 -166.303,11.735 -249.607,5.004 -58.747,-4.749 -116.978,-13.29 -172.781,-33.611 -8.797,-3.204 -17.281,-7.267 -25.911,-10.932 0.292,-0.756 0.584,-1.512 0.876,-2.267 z"
       id="path4628"
       inkscape:connector-curvature="0"
       style="clip-rule:evenodd;fill-rule:evenodd" /><path
       d="m 236.659,493.887 c 2.67,-30.484 3.994,-59.63 7.97,-88.41 12.624,-91.349 39.113,-177.955 92.243,-254.655 28.961,-41.809 64.924,-75.228 114.765,-90.879 1.6,-0.502 3.307,-0.66 5.647,0.448 -4.921,2.58 -9.873,5.1 -14.754,7.755 -4.971,2.705 -10.044,5.273 -14.773,8.361 -37.901,24.74 -64.965,59.199 -86.488,98.246 -49.285,89.421 -71.025,185.881 -72.758,287.437 -0.081,4.697 -3.275,10.529 -6.884,13.73 -7.4,6.568 -16.066,11.708 -24.968,17.967 z"
       id="path4630"
       inkscape:connector-curvature="0"
       style="clip-rule:evenodd;fill-rule:evenodd" /><path
       d="M 372.681,63.988 C 265.759,121.618 203.547,211.71 161.328,321.812 178.613,198.938 260.263,93.593 372.681,63.988 Z"
       id="path4632"
       inkscape:connector-curvature="0"
       style="clip-rule:evenodd;fill-rule:evenodd" /></g></svg>